<?xml version="1.0" encoding="UTF-8"?>
<svg id="_x32_" xmlns="http://www.w3.org/2000/svg" xmlns:xlink="http://www.w3.org/1999/xlink" version="1.1" viewBox="0 0 512 512">
  <!-- Generator: Adobe Illustrator 29.3.1, SVG Export Plug-In . SVG Version: 2.1.0 Build 151)  -->
  <path d="M442.9,61.2c2.8,1.4,6.9,3.7,9.7,5.6,8.8,6.1,17.2,17.4,21.2,27.7,2.2,5.6,3.4,21.2,2.5,28-2.5,18.3-15.5,40.3-27.5,54.2-7.1,8.1-16,14.7-23.5,22.4-1,1-3.2,1.9-3.5,3-.8,2.9,5.5,7.2,7.1,9.1,11.3,14.1,20.3,40.7,22.1,59.1,7.2,72.1-27.9,123.3-86.8,159.9-79.2,49.2-215.5,40-286.4-22.5-25.4-22.4-45.2-56.8-42-91.8.1-1.1,1.7-3.9,1.9-5.3,6.6-42.1,32.3-70.9,61.4-99.5s4-6.5,7.4-7c-.4-2.8-4.2-2.5-5.9-4.9s-.7-3.3-.8-3.5c-1-1.3-12.7-4.8-15.4-6.4s-6.3-6-8.7-8.6-3.5-1.1-4.5-2.4,0-2,0-2.2-3.1-1.9-4.1-3.4c-22-32.3-2-86.1,29.8-106.3,34.7-22,76.3-6.6,98.3,26.5,7.9,11.9,14.2,26.6,16.7,41.3.3,1.9,1.3,17.8,2.5,17.8,2.3-.4,4.7-2.4,6.6-3.1,20.7-7.4,40.4-10.3,62.2-4.5,1.8.5,12.9,5,13.5,4.4,3.1-15.1,8.1-29.9,15.4-43.6,26-48.5,80.2-69.6,130.9-44.1ZM219.5,265.3c2.8-11.5-6.9-16.1-16.6-11.8-7.5,3.3-12,8.8-9.6,17.2,3,10.4,16.9,6.6,22.5,0s3.6-5.1,3.7-5.5ZM312.6,274.3c2.3-3.2,4.2-9.2,2.7-12.9-2.3-6.1-9.7-9-15.7-6.8s-.9,1.4-1.6,1.8-1.5.4-2.1,1c-3.8,3.7-5.4,8.2-4.4,13.5s2.2,5.8,2.6,6.2c1.2.9,8.7,3,10.5,2.7,2.9-.4,6.3-3.1,8-5.4ZM258,314.4c-.4-.2-4.7-.9-5.3-.8-5.1.5-18.6,14.5-23.7,18.2-8.4,6.2-19.2,12.5-29.8,12.4-9.3,0-23.2-9-26.7-17.6s.4-6.4-5.9-5.2c-2.3.5-2.5,5.4-2.1,7.3.8,4,9.2,15.4,12.6,18.1s15.5,7.3,20.2,7.8c4.4.5,14.2-2.4,18.5-3.9.2,1.5-1.3,2.4-1.7,3.7-2.3,8.1,4.6,22.5,10.3,28.4s17,10.6,22.9,9.5c7.5-1.5,15.4-5.3,19.9-10.5,7.4-8.5,11.9-16.2,16.9-25.8.8-1.6,3.7-9.1,4.6-9.6,7.4.9,14.3,2.8,21.8,2.3s10.9-1.5,13.6-3.4c5.3-3.6,4.2-10.6-2.4-9.6-2.8.4-6.4,2-9.9,2.5-5.7.7-10.5.4-16-.7-14.9-3.2-24.9-8.5-35.4-19.3-.8-.9-2.1-3.6-2.4-3.8Z"/>
  <path d="M259.2,330.1c3.1,2.5,6.2,5.3,9.5,7.8l9.5,4.5c1.2,1.9-5,12.4-6.3,14.7-3.6,6.8-7.8,15.5-14.3,20.3s-12.6,5.9-20.2,2.8-11.4-9.2-13.9-15.4c-2.1-5.2-2.4-10.5-2.9-16,4.3-2.3,8.4-4.9,12.4-7.8,5.3-3.8,9.8-8.7,14.9-12.8,1.4-1.1,3.5-1.7,4.8-3.4,2.1,1.8,4.3,3.6,6.5,5.4Z"/>
</svg>