<?xml version="1.0" encoding="UTF-8"?>
<svg id="_x32_" xmlns="http://www.w3.org/2000/svg" xmlns:xlink="http://www.w3.org/1999/xlink" version="1.1" viewBox="0 0 512 512">
  <!-- Generator: Adobe Illustrator 29.3.1, SVG Export Plug-In . SVG Version: 2.1.0 Build 151)  -->
  <path d="M275.5,55.5c2.1,1.7,4.3,3.6,6.4,5.4,3.9,3.3,5.9,7.3,10.5,10.8s2.7.2,3.3,2.4-.3,1.5-.2,1.7.8-.4,1.1-.2c.6.3,1.1,1.8,1.9,2.5,1.9,1.6,6.3,6.5,7.1,6.9,11.7,7.2,20.5,17.1,31.8,25.3s3.2,4.8,4.4,6c2.8,3.1,5.8,4.4,8.6,6.6s1.5,3,1.8,3.4c.7.6,3.2,1.4,4.6,2.5,3.3,2.5,5.2,7,9.2,8.9l-.5,1c1.3,0,2.8,1.4,3.6,2.4,3.6,4.2,8.3,7.7,11.6,11.6,4.9,5.6,11.2,13.5,17.1,19.2s3.7,2.6,3.9,2.8c.3.3-.1,1.5.2,2s1.5.4,2.1.9c2.6,2.3,4.7,5.8,6.8,8.3s5.6,7,8.6,9.1-.4,1.3,0,1.8,1.2.2,1.6.5c.6.5,2.2,5,2.5,5.2s1.4.2,2.1.9.8,2.2,1.7,2.8,1.5.2,1.6.3-.8,1.5.6,3.5,2.4,1.1,2.1,2.6l-1.1.5,3.3.6-.5,1.9c2.3,1,.9,2.5,2.2,4.3s2.1,1.2,2.5,2.6-.5,1.9-.3,2.1,1.3.2,1.4.9-.5,1.1-.4,1.7c.8,3.5,2.6,5.7,1.5,9.8s-2,3.4-3.7,5.3-1,3.1-4.4,2.9l.6,1.6c-3.1-.2-5.3,2.8-7.8,4.1-6.4,3.2-14.7,3.5-21.5,4.9-1.8.4-3.6,1.9-5.4,1-.8,2,0,4.1-.1,5.8-.6,12.1.5,24.3.7,36.3l1.1.5c-1.5,8.8,2.7,17.4,3.1,25.9s-.1,8.1.2,12.8c1.2,16.1,5.6,32.5,6.5,47.6.2,3.6,0,8.5.7,11.2,1.2,5.9-.6,7.5-1.3,12.4-.4,3,.5,3.6-.7,6.5-2,4.6-4.1,10.3-7.4,13.9s-10.9,8.8-12.5,9.5c-7.8,3.5-15.5,7.2-24.3,8.8s-2-.3-2-.2c-.1.2,0,1.2-.6,1.9s-3,2.2-4.4,2l.6,1.1c-1.8-.5-3-.2-4.7.6l-.8-1.1-.3,1.1c-4-3.5-7.9-.3-12.2.5-1,.2-2-.4-2.7-.2-11.9,2.2-23.6,3.7-35.8,4.2-1.1,0-2.2-.4-3.3-.1-.7-2.6-1.2,2.3-2.7-1-1.4,2.3-5.5-.6-6.1,1.7-5.6-1.9-12.5-.3-18.2.3s-5.3-1.3-6.7-1.4c-2.7-.1-5.5,1.5-7.6,0l-.5,1.1c-2.4-1.9-5.2-.1-7.7,0-2.6,0-5.6-1.5-8.3-1.1s-.7,1.1-1.2,1.2-8.6-.9-10.4-1.1c-6.3-.4-12.4-1.5-18.6-1.5-12.6,0-23.3-.1-36-1.6-8.7-1-25.1-2.9-32.1-7.7-2.3-1.6-10.2-9.7-11.6-12.1-1.1-1.8-1.4-6-4.4-5.8l1.1-1.1h-.9c-.3-3.1-3.3-6.6-3.9-9.3-1.3-5.8-3.5-14.3-3.9-20.3-.4-4.6-.5-8-1.1-12.7-1.3-10.4-1.2-20.8-3.9-30.8l1.1-.5c-1.5-1.5,0-2.8,0-5,0-6.2-.8-11.6-.5-17.6.5-8.9.2-17.7,0-26.4l1.1-.5c-1.1-8.2,0-17.3.5-25.9.3-6.5,3.2-6.5-5.3-7.2s-1.9.4-3.1.3c-3.1-.3-6.5-1.4-9.9-1.1l-.6,1.1c-3.2-3.2-11-2.7-14.3-5s-.6-2.1-2-1c.4-2-1-1.5-2.2-2.5-2.1-1.5-5.9-4.8-4.4-7.5h-1.7c.4-2.6-.2-5.8.6-8.4s1-.4,1.1-.8-.6-3.4-.5-4.2l2.6-2.7v-1.3c2.1-2.6,3.2-3.8,4.6-6.4,2.5-4.5,6-9.6,9.1-13.6,4.8-6.2,10.4-11.1,15.5-16.7.6-.6,1-3.1,1.8-4s1.8-1.2,3.1-2.5,1.8-.2.8-2.7c2.6.1,2.5-2.5,3.9-4.2s4.6-4,5.7-5c13.9-12.3,28.7-30.6,42.5-43.7,2.4-2.3,13.3-10.8,14.5-12.8s0-1.4.3-1.9c1.4-2.1,5.3-3.4,6.8-4.7s1-2.1,1.9-2.9c5.7-5.2,11.9-9.3,16.6-13.5,1.4-1.2,3.3-4.3,4.5-5s1.9,1.3,1.9-1.3c3.9-1.5,6.6-5.3,9.8-8s6.4-4.6,10.4-6.9,2-3.4,3.3-4.1c5.8-3.2,8.2-5.7,13.3-9.4,2.5-1.8,14.7-7.9,15.4-9s.2-1.9.7-2.9,2.2-1.2,2.2-2.5l.8,1.1c2.2-2.5,8.8-1.7,11.1.2ZM381.4,260.3c-1.3-1.6-8,2.3-10.2.5l-.5,1c-13.6-.9-27.5,3.1-41.4,3.9l-.5-1.1c-3.4,2.5-7.3.2-10.5,2.2l-.5-1.1c-3.9,1.9-8.3,1.4-12.5,1.7-3,.2-5.2,0-7.9.2-2,.1-4.8,1.5-6.8,1.6-4.9.3-13.7-1.3-18.4.9s-.5.6-.4,1.1c-3.8-2.3-9.9-.3-13.9-.2-15.7.4-34.3.2-49.8,2.3-.8.1-1.6.9-2.1.9-3.4.4-9.5-3.3-13.8-.3-.5-2.1-.5-.3-2.1-.1s-6.5-.9-8.9-1c-4.7,0-10.4,1.9-14.3-.5l-.5,1c-9.8-1.2-19.4-.5-29.2-.5-2.6,0-5.4-.1-8-.6l-.5,3.1,1,1-1.1,1.4c2-.2.5,1.1.6,2.4.4,8.9-1.3,15.8-1,24.3,0,2,.8,4.2.9,6.1s-1,5.5-1,7.1,1.4,3.5,1.4,5.1-1.2,3.3-1.2,4.3c-.9,13.7,1.1,24.3,2.2,37.2s.5,4.2.7,6.4-1,3.2-1,4.9.9,2.4,1,3.5c1.5,13.1,3.9,28.4,8.5,40.4s2.7,6,5.7,9.2.6,1.9,1.1,2.3c1.7,1.3,8.4,3.3,10.6,4.1s2.1,1.3,3.2,1.6c2.5.7,5.4-.2,7.6,2l1.1-1.1c11.6,1.4,23.5,3.1,35.2,1.7.4.9,0,1.3,1.3,1l.3-1.1c8.5,2,18.8,1.7,27.5,2.2l.6-1.1c1.4,1.9,3.7.8,5.6,0l.5,1.1c2.1-.2,5.6-.7,7.7-.6s4.1,2,5.8-.2c-.4-.3-.8-.7-1-1.2-2.7-11-3.9-19-4.5-30.1s-1.3-6.1-1.2-7.8,1.9-2,1.7-3.8l-1.1-.6,1.1-1.7c0-.4-.8-.1-1-.5-1.1-2.6,2.2-14.3,2.9-17.9,1.7-9.1,2.2-13.9,5.9-22.3,1.6-3.8,1.4-4,2.5-7.5s6.6-8.4,7.8-10.1,0-2.5.2-3.3,3.6-3.7,4.3-4.6,1.7-4.3,1.9-4.5c.7-.9,5.2-4,6.5-4.6l-.5-1c2.7,0,3.2-3.1,4.6-4.3,6.8-5.6,18.2-8.5,25.8-9.7,2.4-.4,6.8-.2,9.5.4s3.6,2.1,5.8,1.9l-.6,1.1c3.3.6,8,2.8,10.5,5.2s5.5,5.6,8.2,8.3c.5.6.5,1.5.7,1.8s1.3,0,1.5.1-.5,1.1-.2,1.7c.4,1,3.8,4,4.5,5.1,2.2,3.3,4.6,12.8,6.3,17,.7,1.7,1.7,2.7,2.6,3.8s-.6,1.5-.5,2.3c.5,3.8,2.8,8.5,3.8,11.6l.2,8.5c2.8,1,.7,1.2.7,2s1,2.3,1.2,3.6c.3,2.7-1,8.4,1.9,9.4v.5c-2.1-.2-.6,1.3-.6,2.5-.1,2.4-1.5,4.6.7,6.6v1.1s-1.1.6-1.1.6c1.9,3.2.4,8.4.2,11.8s-.9,5.9.9,7.5l-1,.5-.6,7.8,1,.5-.5,2c.4.4,3.5-1.3,4.3-1.5,1.9-.5,2.6-.7,4.7-1.4,3.3-1.1,1.3-.6,3.6-2s5.3-2.4,7.3-3.7,2.5-2.7,4.4-3.2l-1-1.1c2.2-1.4,4.1-4.2,4.9-6.7s0-2.8.1-3.8c2.1-12.1.7-17.5-.5-29.7s-1-5.9-1.5-9.5c-1.7-12.9-1.8-26.5-3.8-39.3-.5-3.5-2.7-7.5-1.5-10.8-2.7-1.2,0-2,0-2.2,0-1.4-1.5-2.8.5-4.6l-1.1-.4c.5-5.8-1.7-11.8-1.9-17.4-.3-8.8,0-17.4-.9-26s-.7-1.9-.8-2.9.4-3.8.3-4ZM312.7,321.2c-.3-.1-.3-1.3-1-1.4s-8.3,1.2-8.9,1.4-.6,1-.8,1.1c-10.8,5.9-18.3,14.7-25.1,25.9-.3.4-2,3.2-2.1,3.4-.4,1.7.4,4.2-.2,5.2s-1.2,0-1.7.7-2.2,6.5-2.6,7.7c-1.9,5.6-2.8,11.2-4.2,16.4-.3,1.2-1,2.2-1.2,3.4s1.4,4.2-.7,4l1.1,1.4c-2,.5-.7,1.5-.7,3,0,1.5-.8,2.9.2,4.4h-1.7c2,3.7-.3,7-.6,10.8-.4,6.9,2.4,13.5,3.6,20,.2,1.2-.3,2.3,0,3.8.7,2.9,2.4,6.3,3,9.4l46.7-1.1v-1.7c.9-.3.3,1.1.9,1.1s5.2-1.2,6.8-1.4c6.9-.6,9.1-1.7,15.1-2.7,1.4-.2,3.5.3,4.5,0s1.6-1.2,2.3-1.4c1.2-.4.3,1.7,1.9,1.1-1.3-2,.4-1.4.5-2,1.7-6.3-.5-14.8.2-20.8.5-4.5,1.9-8.9,1.4-13.8-.2-1.7-1.5-2.7-1.1-5.6s.9.8.3-3.3c-1.3-9.6-1.9-16.9-4.5-25.9s-.6-3.8-1.3-5.5l1.1-.8c-1.8,0-1.4-2.3-2.1-3.7-2-4.3-3.4-8.6-5.3-12.4-2.8-6-12-19.7-18.9-20.6s-3.8.4-5-.3Z"/>
</svg>