<?xml version="1.0" encoding="UTF-8"?>
<svg id="_x32_" xmlns="http://www.w3.org/2000/svg" xmlns:xlink="http://www.w3.org/1999/xlink" version="1.1" viewBox="0 0 512 512">
  <!-- Generator: Adobe Illustrator 29.3.1, SVG Export Plug-In . SVG Version: 2.1.0 Build 151)  -->
  <path d="M247.1,62.1c.1,0,0-.7.2-.7,1.1-.6,8.8,1.2,10.7,1.4s3.5-.6,5.6-.1,3.9,1.9,4.5,1.9,1.7-.7,2.6-.8c2-.1,13.3,4.5,16,5.5,8.7,3.2,15.6,6.3,22.9,12,5,3.9,14.2,11.5,16.6,17.3.2.5,1.3,0,.4,2.3,2.2-.2,1.5,1,1.8,1.5,4.8,6.8,7.2,12.1,10.6,19.9.9,2,2.6,4.2,3.4,6.2s.4,3.4,1.3,5.1,1.1.6,1.4,1.2c.8,1.8-.2,5.2.6,7.8.2.6,1.6,0,.5,2.4l1-.3c-.3,1.6.5,2.8.9,4.1.9,3.5,1.6,11.5,2.1,15.9,1.3,12.3,3,26.7,3.1,39,0,1.4.4,3.6-1.1,4.1l1,1.8-1.5.8,1.5,2.2c-1.7-.2-.7,1.8-1.1,3.2-1,3.8-1.1,8.1-2.2,11-2.4,6.4-4.7,13.5-8.2,19.5s-.6.5-1,.4c-.2.8.7.3.8.6.8,1.5-.9,1.4-1.3,1.7-2.6,2.3-2.7,3.6-4.4,6.1s-2.4,2.1-2.5,2.3c-.4,1-.3,3.1-1.1,4.1s-1.5,0-2,.4-.2,1.2-.6,1.7c-3.4,5.2-9.9,10.9-14.3,15.8s-.8.4-1.2.5l.5,1.5c-1.4-1-3.1,1.1-4,2.3.3.8,1.5.2,1.8.7s-.3,1,0,1.5c1.4,2.6,5.9,8.6,7.9,11.4s2.1,1.6,2.2,1.9c.3.6,0,1.5.2,1.8s.9,0,1.2.2c1,.8.7,2.2.8,2.3,3,2.1,2.3,3.2,4.4,5.9s5.1,5.4,7.5,8.7c4,5.5,8.1,10.5,12.4,15.8,4.4,5.3,7.1,10,12.4,14.4,4.1,3.5,7.8,9.8,12.1,14,.7.7,1.7.3,2.2.6s.7,2,1.3,2.7,2,1.2,2.7,1.8c2.6,2.6,4.4,5.2,7.3,8,1.9,1.9,1.6,1.8,3.1,3.7s4.3,1.6,3.8,3.7l.9-.4c.2.3.3.9.6,1.1,5.4,4.4,9.8,10.2,15.5,14.3,3.2,2.4,3.4,3.2,6.3,5.9.9.9,2.8,2,3.6,2.7s.8,2.2,2.7,2l-1,2.5,2-1-.5,2,1.6.3c1.1,1.5-1.2,5,.9,5.5-1.4.9-.3,2.1-.5,3.5s-1.4,5.6-3.5,5.3l1,1.5-1.5-.5c0,2.5-1.7,2.9-3.5,4.2s-.7,0-.8,0c-3.3,2.1-6.4,5-10.2,6.6s-4.9,1.3-6,2-.8,1.6-1.6,1.9c-2.6.9-5.9,1.5-8.3,2.8s-1.9,1.4-2.6,1.7c-1.3.5-3.5-.8-4.8,1.3l-1.7-1v1.5c-.2.2-.8-.7-1.3-.8-1-.2-7.7,1-8.4,1.4s-.7,1.3-1.2,1.4c-1.9.5-7.9-1.6-9.4.5-1.5-1.3-3.5-1-4.9-1.5-2.1-.9-.7-.3-3.1-.5-10.5-1-14.5-5.4-21.3-12.3-3.8-3.8-9.9-9.2-13.1-13.1-2.1-2.6-3.9-7.2-5.7-10s-3.2-3.3-4.9-6.8-2.5-2.1,0-2.4v-.5c-1.6-1.1-4.3-3.2-5.5-4.9s-2.8-6.1-4.1-8.3-4.5-5.8-4.7-6.4c-.3-.8.2-1.7,0-2-.3-.6-2.5-1.7-3.4-3.6-2.7-5.9-5-11.7-8.2-17.4-6.5-11.6-18.3-22.5-20.4-35.3-.4-2.2-2.8-4.8-2.4-7.3-1.7-.7-2,.8-2.4,1-5.3,2.1-11.2,6.2-15.7,7.3s-6.3,3-9.9,4.1c-6.8,2.1-15,3.8-21.7,5.3s-25.5,5.2-33.8,1.9-4.8.2-6.8-.7.6-.5-2.9-1c-8.1-1.1-21.1-4-28.6-7-2-.8-2.6-2.8-2.7-2.9-.7-.4-2.1-.3-3.1-.8s-2.2-2.2-2.7-2.5c-2.9-1.7-7.4-2.7-9.4-5.9s-.3-1.8-.6-2.2-1.2-.3-1.6-.7c-10.4-9.7-15.8-20.2-21.9-32.7s-5.3-10.7-6.7-15.3,1.3-2.4-1.3-2c-.2-.8,1-.2,1-.8s-.9-7.1-1.2-8c-2.3-8.2-2-16.8-2-26.1,0-1-.5-2-.5-3s.4-.7.5-2.5c.3-5.1-.3-10.2.6-15.5s1.6-7.9,2.1-12.5c.6-4.6,1.9-9.1,2.8-13.6l1,.2-1-1.5,1.4-.2,1.3-7,2.6-7.7c4.4-6,6.7-13.4,9.9-20s7.4-11.1,9.7-13.3,2.2-5.4,3.1-6.5,3.5-2.8,4.5-4.2.5-2,1-2.8c1.6-2.5,6.3-5.4,8.9-8s2.9-2.8,3.4-3.4c2.2-2.8,1.4-3.2,4.3-5.3s3.8-3.1,3.9-3.3c.2-.4,0-.9.1-1.4l1,1c.3-2.6,3.2-3.9,4.5-5.8s-.5-1.6,2.2-1.7l5-5.1c6.1-4.6,12.4-10.9,21.2-11.8s5,.2,11.2-2.3,23.9-9.1,30.9-9.7c7-.6,15-1.2,21.9-1,.9,0,2.7,1,3.2.7ZM237.7,82.2c-1.2-.9-3.3-1.5-4.8-1.5s-2.6.9-4.1.9-2.2-.5-3.4-.4c-1.7.1-4.4,1.9-5.6,1.9s-1.4-1-2.4-1.2-14.9,2.5-16.8,3c-4.2,1.3-10.2,5.6-13.9,7.8-5.4,3.1-10.6,8-15.6,11.8s-5.5,3.4-6.1,6.2l-1.5-.5c.3,2.3-2.1,2.5-3.3,3.7s-1.2,2.6-1.7,3.1c-1.3,1.5-4,2.1-5.5,4.1s-2.7,4.9-3.6,6-2.2,1.6-2.7,2.3c-.9,1.3-.2,3.3-3.2,2.8l.9.7c.4,1.4-2.9,3.5-3.8,4.4-2.7,2.9-2.8,6-5,9.3s-1.7,1.2-2.1,1.7c-1,1.4-1,4.2-2.7,4.4l1,.5c.4,1.3-.7.8-1,1.3-.8,1.3-1.4,3-1.8,3.8-1,2.4-.6,1-1.6,1.6s-.3,1.7-1.6.8c0,2.9-.3,6.4-2.8,8,.5,2.6-.5,1.7-.9,2.5-2.4,4.4-3.9,10.5-5.1,15.4s-1.8,2-.7,3.6h-1.5c.5,1.2,0,2.4-1,3.3l1,.5c-1.1,1.8-.7,4.3-1.1,6.1s-.9.2-1.2,1.2c-.7,2.5-2.5,13.7-1.8,15.8s1.1.8,1.1,1c-.6,2.6-2.8,8.3-2.4,11.1s2.2,6.5-.1,9.5c1.8.4.2,2.5,2,2.3.2.8-.7.3-.9.6s.6,3.9-.1,4.7l1,.6c-1.2,2.2.3,3.8,1.1,5.7s.4.9,1.3,2.1-.5,1.2-.3,2.1c.3,1.8,1.4,6.8,1.9,8.5s.8-.6,1,2.5,1.8,2,2.2,2.9.9,4,1.4,5.2,1.3.8,1.3.9-.5,1-.2,1.9,1.5,1.5,1.9,2.2c.8,1.3,2.2,4.7,3.2,5.4s2.8-.1,2.7,3l1.5-.5c0,2.8,2.8,4.4,4.3,6.2,2.9,3.5,3,4.2,7.1,6.8s2.1,1.3,4.6,2.4c1.8.8,2.3,2.1,3.3,2.7,3.9,2.4,9.8,4.9,14.2,5.1l-.5,1c.5.4,4.1.4,4.7.5,1.7.5,4.1,1.8,6.8,2.3,6.7,1,13.8,2.9,20.8,2.9s3.2-1,4.9-.2l.6-1,1.2,1c-.3-1.9,2.9-.3,4.4-.3,4.7.1,18.1-3.1,23.2-4.4,10.9-2.8,21.7-8.1,30.8-13.8s8.6-4.6,9.9-5.7,1.3-2,3.8-3.8c12.2-8.6,19-17.8,28.3-28.8,3.7-4.3,3-4.6,5.6-8.9s3.2-3.2,4.2-4.5c2.5-3.4,3.4-6.7,5.2-10.4,1-1.9,2-4.6,3-6.3,1.8-3.2,1.5-1.8,2.7-5.5,2-6.2,6.5-12.2,6.2-18.7l1-.5c-1.4-1.6,0-4,.5-5.9,1-3.2,2-8.2,2.4-12.2s-1.4-6.6.6-9.5c-2.2-.6-.3-2.5-.3-4s0-5.9-.3-7.5-2.7-6.2-1-8.3c-2.2,0,0-1.5-.2-2.3s-.8-.9-.8-1.6c-.1-1.1.6-1.9.5-2.4s-1.1-.3-1.4-1.1c-1.3-3-1.3-8.1-2.3-11.2-2-6.1-7.1-16.3-10.8-21.7s-3.2-1.7-2-3.4c-.6,0-1.4,0-1.8-.5s-1.2-3.7-1.4-3.9c-1.1-1.4-4.3-4.2-5.7-5.3-3.1-2.6-5.2-4.5-7.9-7.3s-20.4-11.6-23.3-12.2c-11.3-2.7-23.1-5.3-34.9-5.1s-1.8,1.6-3-.2l-.3,1Z"/>
  <path d="M287.2,110.5c2.7,2,4.9,3.9,7.5,6.3,6.9,6.3,9.3,12.5,13.1,21s3.9,6.9,4,7.6-.8,1.1-.8,1.8.8.2,1,.6c1.1,1.8-.2,2.7,0,3.9s.8.2,1,.7c.6,1.8-.2,5,1.5,6.9l-1,.7c1-.6,1.5,2.7,1.5,3.2s-.9.2-1,.6c-1,4.2,0,14.8-.2,19.5-.4,8.4-9.1,25.3-13.7,32.7-2.9,4.5-7.7,14.2-11.6,17.4-3.9,3.2-7.5,6.4-11.3,9.7s-9.5,7.6-14.5,11.3c-1.8,1.3-5.4,4.9-7.1,5.8s-1.9,0-2.2.3c-.5.3,0,1-.1,1.2-.2.3-5.6,4.8-6,5-1.6.7-4.9,1-6.9,1.9s-2.8,2.8-4.8,3.7-4.7.9-5.7,1.3-1,2.7-1.8.2c-2.3,1.8-10.4.1-11.9-1.7s2.9-7.8,4.8-9.3c2.9-2.4,6.8-3.1,10.2-5,9.6-5.2,21.3-12,30.2-19.3,2.3-1.9,4.5-5.6,5.7-6.6,4.4-3.6,8.9-6,12.7-10.9s.8-3.4,2.8-5.1,2.5-2.1,4.2-4.4,4.5-6.7,5.9-10.2c2-5,5.5-11.8,6.8-17.5s.8-26.8-1.8-34.2c-4-11.5-9.1-18.1-17.1-26.5s-.6-.7-.6-1.2l-.7,1-3.4-3.3-9.8-4.3c-.1-2.2-.2-1-1.2-1.1-4.4-.5-13.8-4-14.3-9.2s1.2-3.2,2.9-4.4.6-1.2,1.3-1.5c1.2-.5,11.5,2.1,13.9,1.5,8.1,1.8,12.3,5.2,18.7,10.1Z"/>
  <path d="M184.4,273c1.2,1,3.4,3.9,2.5,5.3s-2.5,2.3-2.6,2.4c-5.1,2.6-12.9.9-18.4.6-2.3-2.1-8.1-3-5.1-7.5s8.3-2.8,11.9-3.1,1.9-.7,2.8-.8c3-.2,6.6,1.2,9,3.1Z"/>
</svg>