<?xml version="1.0" encoding="UTF-8"?>
<svg id="_x32_" xmlns="http://www.w3.org/2000/svg" xmlns:xlink="http://www.w3.org/1999/xlink" version="1.1" viewBox="0 0 512 512">
  <!-- Generator: Adobe Illustrator 29.3.1, SVG Export Plug-In . SVG Version: 2.1.0 Build 151)  -->
  <path d="M283.2,58.1c.3-.2-.1-1.5,1.8-1.2s1.3,1.6,1.7,1.9,2.7-.8,4.2-.6.9,1.1,1.3,1.2c7.8,1.7,17.6,2.1,25.4,2.4s7.4,2.8,10.4,2.9c5.3.3,13.8,2,20.1,3.4s5.4,3.1,8.8,1.9v2s1.6-1.2,1.6-1.2c1.5,2.1,3.6,1.4,5.7,2.5s1.7,2.4,1.9,2.4c.4.1,2.4-.8,4-.5s3.5,3,4.5,3.4c2,.9,4.1.3,5.6.9,4.1,1.5,10.5,7.6,14.9,8.8-.4,2.7,1.6,1.6,3.6,2.6s3.8,3.3,5.4,4.3,7,2.6,9,4.3,4,4.2,6.4,6.3c4.4,3.8,7.4,7.7,11.3,11.4s2.7,1.1,3.6,2.2c1.4,1.8-1.1.8-1,2,2.6-.6,3.2,2.5,4.1,3.1s1.6,0,1.7.2-.8,1.3-.4,1.9,3.4,2.5,4.1,3.5,3,4.8,3.1,5c1.3,2.6,3.1,6.1,4.7,8.9s2.4,1.9,2.8,2.6,0,1.3,1.2,3.3c7.3,12.4,8.9,25.1,12.9,38.4,2.8,9.3,2.3,21.1,2.3,30.8,0,15-1,42.8-7.4,56s-3.4,14.9-5.4,21.4c-1.9,6.4-5.9,11.6-8.2,17.3s-2.1,8.3-4.4,12.3-2.1,1.9-2.9,3.6-.3,2.4-.6,2.9-2.4.7-2.5.8c-.2.3.7,1.4.5,1.8s-2.9,3.2-3.4,4.1-.1,2.1-.5,2.5c-1.2,1.2-.4-1.2-2.2,2.6-2.9,6-7.8,10.9-11.3,16.2-2.1,3.3-2.6,5.2-6.1,8.1s-3.5,1.6-3.7,1.9.7,1.6.2,2.5c-.8,1.5-2.6,1.9-3.3,2.7-5.8,6.7-18.5,19.8-25.9,25.2s-2.6-.5-1.9,2.6c-6.7,4.4-13.8,8.4-20.5,12.8s-3.3,2.5-7.2,4.5-10.9,7.6-15.7,9.1-1.2,0-1.9-.3v1.9c-2.1-.5-2.4.9-2.8,1.1-5.1,2.5-10.1,4.4-15.3,6.5s-1,1.3-1.7,1.6l-1.9-1.3c-1,1.8-4.8,3.4-6.9,4.1-19,5.9-40.8,11.6-60.7,12.8s-10.1,2-15.9,1.6c-16.3-1.3-38.1-.2-53.5-6.2s-.5-1.3-.9-1.3c-1.1,0-2.1,1.4-3.2,1.4s-.2-1.1-.8-1.3c-6.4-2-15.7-3.8-21.3-6.5-9.1-4.5-19-9.6-27.5-14.9s-17.2-10.1-20.4-14-10-8-14.6-12.6-2.5-2.4-3.9-3.9-1.9-5-3.1-6.3-2-1-2.8-1.7c-1.4-1.4-2-4.2-2.2-4.3s-2.2,1.2-3-.8.2-1.7-.3-2.6c-1-2.2-3.1-3.6-4.6-5.4-6-7.3-15.7-27.1-18.4-36.3-4.5-15.3-8.5-30-8.5-46.3,0-7.7,1.4-14.3,2.2-21.5s-1.9-7,.7-6.8l-1.3-1c-.2-2.2,1.4-4.4,1.7-5.9,1.2-6,2.4-10.7,3.6-16.6s.6-1.5,1.1-2.1l-1.3-1c3.4.7,2.3-3.6,2.7-5.5s1.2-.3,1.2-.7c0-.9-.8-1.9-.7-2.5s1.3-.5,1.7-1c.8-1.1-1.1-4.6,2.2-5.5l-1.3-1.6c3.1-.7,3.2-6.6,4.3-9.1s2.7-5.6,3.7-7.7,3-.9.5-3.4c2.4.5,2.5-2,3.7-3.7,3.4-4.9,2.8-6.5,4.8-11.3s6.3-10.5,7.8-12.5,2.5-2.9,3.3-3.9c1.1-1.5-.3-3.7,3.2-3.6l-.7-1.9h1.8c0-.1.8-3.9.8-3.9l1.2.6c.9-2.4.8-4.6,4-3.9l-.4-2.6c.5-.5,1.7-.4,2.1-.8s2.4-4.8,3.7-6.4c3.2-4,7.5-9.5,11.1-13.3s5-1.9,3.7-4.8c3.6.8,3.1-2.2,4.1-3.1s2.5-.4,3-.9,1-2.8,1.4-3.4c1.9-2.3,6.3-4.9,7.1-5.7s.4-2.2.9-2.9,2.6-1.1,2.9-1.6c.4-.7,0-2.1.1-2.5s.8.5,1.3.2c4.5-2.3,12.9-10,17.1-13.7s3-1.7,4.3-2.5-.2-2.3,2.6-1c-.5-2.6,1.6-2.2,2.4-2.9,4.1-4.1,12-7.9,17.2-11.2s5.7-3.6,4.5-4.8c2.7,1,3.2-1.1,3.7-1.3,3-1.3,4.8-1.4,7.1-2.6,8.6-4.6,19.2-6.9,28.8-9.5s2.1-1.6,3.2-1.9,3.5.8,5.2.4l-.7-1.3c3.1-.4,6.3-.6,8.8-2.6l1.2,1.3c1.7-1.1,5.5-2,7.5-2.3,9-1.2,13.5.8,21.9,2.1s13.7,1.7,14.3,1.3ZM253.9,83.9c-3-1.5-5.8.8-8.5,0s-4.3-2.9-5.9-2.7-1.5,1.4-2.5,1.9c-6.1,2.6-6.6,1.8-12.2,6s-9.6,3-13.4,4.8-10.2,6.5-14.5,9.5-5.4,2.2-5.8,4.3l-1.3-1.3c-.5,3.3-4.2,3.6-6.3,5-3.7,2.5-9.2,5.8-12.9,8.9-1.4,1.1-1.3,3.7-4.1,2.4l.6,1.9c-.3.4-4.6,2-5.4,2.6-5.3,4.2-11.2,9.3-16.3,13.5-11.3,9.2-18.2,17.4-26.8,28.4s-1.2,3.8-1.9,4.9-4,2.3-5.5,4.3c-10.2,13.7-17.7,30.1-24,45.6-3,7.3-4.1,12.4-5.7,19-1.2,4.9-2.2,9.8-3.5,14.7l1.3.6c-3.7,22.5-2.8,46.7,4,68.8,2.6,8.4,7.2,17.8,11.6,26.2s7.2,9,8.5,10.4,1.2.9,2,1l-1.3,1c3,.9,3.7,3.1,5.4,4.7,4.9,4.4,5.6,4.5,11.3,6.9s1.8,3,2.4,3.7c4.7,4.9,16.1,10.8,22,14.9s2.7,3.4,3.2,3.7c3.3,2,13.2,6.7,16.6,8,4.8,1.8,2.5,1.4,5.2,3.3,4.1,2.9,12.7,4.3,17.6,6.3s.8,1.4,1.6,1.7c1.5.5,4.7.2,7.2,1.1s.5,1.2.8,1.2c1,0,2.5-1.2,4-1.2s1.7.8,2.6.9c3,.2,3.3.3,5.4,1,4.8,1.5,4,.3,7.8.2s6.2,2.4,8,.5c-.5,2,4.3.8,6.2.8,6.5.2,14,.2,20.6-1.2s1.1-.5,1.6-.9c.4,2.4,3.4.6,5.2.4,16.8-1.6,33.7-5.4,49.9-10.8,2-.7,3.8-.9,5.7-1.5,3.6-1.2,8.1-4.2,11.9-5.1s2.3.3,2.5.2-.5-.9-.3-1.3c.4-.7,1.7-.9,2.3-1.6s1.8-3.4,3.7-4.2c5.2-2.2,5.6-1.9,10.3-5.5,9.2-6.9,18.3-15,26-22.7,6.8-6.8,12.9-14,19.1-20.9,3.1-3.5,6.3-10.1,9.4-13.3s3.5-2,3.9-2.6c.9-1.2,2-6.2,2.9-8.1,3.5-7.1,6.9-13.8,10.3-20.9s4.3-6.3,4.8-8.2-.3-3.2.2-4.7,2-2.4,2.1-3.4-.5-1.9-.4-3c.3-2.5,3.3-7,3.7-10.6s2.1-10.5,2.3-13.8-.9-4.3-.9-6.2c0-3.3,1.6-7.4,1.5-11.1s-1.5-2.1-.3-3.8l-1.3-.4c2-1.9-.4-3.3-.3-6.2s1.4-4.5.8-9.1-1.7-4.2-1.7-4.5c-.2-1.4,1.1-6.5-1.4-6.2v-1.3s1.3-.3,1.3-.3c-3.6-2,.6-4-1.9-5.9-.2-.6.9-.1,1.2-.6s0-5.7-.1-6.4c-.2-1.9-1.1-3.4-1.3-4.7-.6-3.8,0-10-4.3-12l1.3-1.1c.8-2.9-1.3-3-1.3-3.2-.5-5.7-1.6-8.4-4.4-13s-3.9-3.6-2.7-5.4h-2c1.6-2.9-.9-2-1.8-2.7s.4-2.2-1.4-2.8l1.3-1.6c-2.7.9-4.6-1.8-6.1-3.9s-2.1-4.5-2.9-5.4-1.6-.2-2.1-.8,0-2.1,0-2.1c-.2-.1-3.3-1.5-3.8-1.4l.7-1.9c-1.8,0-3.6-1.6-5-2.8-10.2-8.7-19.2-19-31.4-24.7s-1.4.2-1.9,0c-1-.6-1.1-2-1.4-2.2s-1.2.5-1.8.2c-1.2-.5-1.5-2.6-3.9-.9v-1.9c-2.9.9-3.6-1.6-4-1.8-4.4-2-11.6-3.7-16-5.2-10.6-3.7-26.2-5.5-38.3-7.1s-32-2-36.9-4.5Z"/>
  <path d="M258.9,147.7c5,6.5.8,13.3-.2,20.2-.3,2.2-.6,4.8-.8,7.1-1,10.6-2.8,19.7-4.9,30.2-.5,2.4-.4,6.2-.9,8.1s-1.3.4-1.3.4c-.2.4.9.9,1,1.6.1,1-1.2,4.9-1.4,6.6-.3,3,.6,5.2-.9,8.2s-1.3.4-1.3.8c0,.9.7,2,.7,3.1-.1,2-1.7,5.3-1.8,7.2-.3,3.5.3,7.9-.2,11.6s-2,7.1-2,12.5c0,.2-2.7,1.4,0,2.6-.4.5-.9,1-1,1.6-1,4.2-.7,3.5-.9,7.5,0,2.1-.8,4.1-.7,6.2,3-.2,5.8-1.3,8.6-2.1s6.2-2.9,8.6-3.8,6.1-.2,7.2-.7.4-1.2,1.9-1.8,4.6,0,4.8-.1.2-1.3,2.2-1.9,4.3-.1,5.8-.6,6-3.8,7.5-4.3c3.6-1.4,9.4-1.2,11.5-4.7l.3,1.3h1.3c1.5-4.3,8.4-3.4,12-4.5s7-4.1,10.6-4.9,2.1.5,2.9.3.5-1.4,1.5-1.9c1.9-.8,5.2-.3,6.9-.8s7.3-3.9,9.7-4.7c6.4-2.2,13.6-4.4,20-6.7,6.4-2.4,11.9-1.5,18.8-3.1s2.1-.4,4.6-.1,6,0,8.1,3.1c4.1,6.1,2.3,14.3-5.3,16s-12.4.5-18.9,3.2c-18.7,7.8-38.6,15.5-56.8,23.7-8.3,3.7-19,6.9-26.8,11.6s-8.9,1.9-13.5,3.4-7.1,3.6-7.5,3.7c-1.7.4-3.5-.9-5.6-.5s-6,2.8-8.9,3.5c-8.2,2-21.1,4.2-28.7,7.2s-2.8,2.6-4.9,2.7-5.9-1.6-6.2-1.8c-.6-.3-.7-1.1-1.3-1.5s-1.3-.3-1.7-.6-2.3-4-2.5-4.3c-2.1-5.3.7-9.9,1.5-14.8,5.2-32.1,13.3-64.1,21.3-95.7,1.4-5.5,3.4-11.1,4.6-16.6.4-1.8-.7-5.7,1.6-5.5l-1.3-1.9c2.2.3,1-2,1.4-3.4,1.8-5.5,4.1-10.8,5-16.5l-1.3-.6c2-1.4,1.2-2.7,1.6-3.6.6-1.6,2.5-2.5,2.4-4.5,1.9,1.3,5-1.5,6.6-1.2s5.1,2.4,5.3,2.6c.9.6.8,1.6,1.3,2.3Z"/>
</svg>