<?xml version="1.0" encoding="UTF-8"?>
<svg id="_x32_" xmlns="http://www.w3.org/2000/svg" xmlns:xlink="http://www.w3.org/1999/xlink" version="1.1" viewBox="0 0 512 512">
  <!-- Generator: Adobe Illustrator 29.3.1, SVG Export Plug-In . SVG Version: 2.1.0 Build 151)  -->
  <g id="izqVol">
    <g>
      <path d="M348.4,361.8l-20.1,13.4s0,0,0,0c1.1,1.4,2.4,2.7,3.8,3.8.2.2.3.3.5.4l19.3-14.1-3.6-3.6ZM382.3,339.2l-20,13.3,3.1,3.1,19.3-14.1-2.3-2.3Z"/>
      <path d="M405.9,176.2c-32.8-17-53.2,1.6-79.7,19.3-17.7,11.8-34.8,24.5-52.4,36.3-2.2-4.3-6.6-8.7-10.9-10.9,1.1-1.2,2.3-2.3,3.5-3.4,18.2-15.2,58.3-35.3,69.7-53.5,23.8-38-19.6-100.2-58.8-108.4-19.4-4-30.7,3.9-46.3,13.7-24.3,15.2-47.2,32.7-71,48.6l-49.8-49.5c-22.8-11.6-46.1-32.1-68.8-42.6-11.5-5.4-20.9,3.6-18.4,15.5l46,74.6,38.6,38.6c.3.3,2.8-.6.7,1.3-18.7,16-42.9,30-61.1,46.8-44.4,41.1,36.3,147.7,89.3,110.8l74.9-55.2,10.9,10.9c-15.6,11.5-31.5,23-46.6,35.2-9.6,7.8-22.5,16.4-26.8,28.1-15.8,42.3,49.2,125.8,96.9,97.8l80-58.9c.6,1.3,1.5,2.6,2.5,3.8l20.1-13.4,3.6,3.6h0s-7.5-7.5-7.5-7.5l12.9-10.3,4.9,4.9,20-13.3,2.3,2.3h0s-7.4-7.4-7.4-7.4l61.4-43.6c39-33.2,3.8-95.4-32.8-114.3ZM127.9,141.2c-12.5-14.2-29.4-27-41.4-41.4-6.9-8.2-13.4-20.9-19.9-30.2-.9-1.3-1.5-.7.3-2.2,9.1,8,22.1,13.3,31.2,20.9,15.1,12.7,28.5,30.2,43.4,43.4l-13.5,9.6ZM243.6,233.8l10.9,10.9-12.9,10.3-10.9-10.9,12.9-10.3Z"/>
      <path d="M474.6,431.4l-92.2-92.2-20,13.3h0s94.2,94.3,94.2,94.3c6.1,8.4-6.2,16.8-11.5,11.6l-93-93-3.6-3.6-20.1,13.4h0l3.9,3.9,94.8,94.8c31.9,27.7,71.2-12.6,47.6-42.5Z"/>
    </g>
  </g>
</svg>