<?xml version="1.0" encoding="UTF-8"?>
<svg id="_x32_" xmlns="http://www.w3.org/2000/svg" xmlns:xlink="http://www.w3.org/1999/xlink" version="1.1" viewBox="0 0 512 512">
  <!-- Generator: Adobe Illustrator 29.3.1, SVG Export Plug-In . SVG Version: 2.1.0 Build 151)  -->
  <defs>
    <style>
      .st0 {
        fill: #fad162;
      }
    </style>
  </defs>
  <path class="st0" d="M474.6,431.4c23.6,29.9-15.7,70.2-47.6,42.5l-94.8-94.8c.2.2.3.3.5.4l19.3-14.1,93,93c5.3,5.3,17.6-3.1,11.5-11.6l-94.2-94.3h0s3.1,3.1,3.1,3.1l19.3-14.1,89.9,89.9Z"/>
  <path class="st0" d="M405.9,176.2c36.6,18.9,71.8,81.1,32.8,114.3l-61.4,43.6,7.4,7.4h0s-2.4-2.3-2.4-2.3l-20,13.4-4.9-4.9-12.9,10.3,7.5,7.5h0s-3.6-3.6-3.6-3.6l-20,13.4c-1-1.2-1.8-2.5-2.5-3.8l-80,58.9c-47.7,28.1-112.7-55.4-96.9-97.8,4.4-11.7,17.2-20.4,26.8-28.1,15.1-12.2,31-23.7,46.6-35.2l-10.9-10.9-74.9,55.2C83.5,350.3,2.8,243.7,47.2,202.6c18.2-16.8,42.4-30.8,61.1-46.8,2.2-1.9-.4-1-.7-1.3l-38.6-38.6L23.1,41.3c-2.6-11.8,6.9-20.8,18.4-15.5,22.7,10.6,46,31.1,68.8,42.6l49.8,49.5c23.8-16,46.7-33.4,71-48.6,15.6-9.8,26.9-17.7,46.3-13.7,39.1,8.2,82.6,70.4,58.8,108.4-11.4,18.2-51.5,38.3-69.7,53.5-1.3,1.1-2.4,2.2-3.5,3.4,4.3,2.2,8.7,6.6,10.9,10.9,17.6-11.9,34.7-24.6,52.4-36.3,26.5-17.7,46.9-36.3,79.7-19.3ZM241.7,255l12.9-10.3-10.9-10.9-12.9,10.3,10.9,10.9ZM127.9,141.2l13.5-9.6c-14.9-13.2-28.3-30.7-43.4-43.4-9.1-7.6-22.1-12.9-31.2-20.9-1.8,1.5-1.2,1-.3,2.2,6.5,9.3,13.1,22,19.9,30.2,12,14.4,28.9,27.2,41.4,41.4Z"/>
  <polygon class="st0" points="384.7 341.5 365.4 355.6 362.3 352.5 382.3 339.2 384.7 341.5"/>
  <path class="st0" d="M352,365.4l-19.3,14.1c-.2-.1-.3-.3-.5-.4l-3.8-3.8s0,0,0,0l20-13.4,3.6,3.6Z"/>
  <path class="st0" d="M328.4,375.2l3.8,3.8c-1.4-1.1-2.7-2.4-3.8-3.8Z"/>
  <path class="st0" d="M328.4,375.2s0,0,0,0h0c0,0,0,0,0,0Z"/>
</svg>